HIERARCHY
ROOT joint_Root
{
	OFFSET 0.0 0.0 0.0
	CHANNELS 6 Xposition Yposition Zposition Zrotation Xrotation Yrotation 
	JOINT Hips
	{
		OFFSET 4.5925 91.4895 -427.239
		CHANNELS 6 Xposition Yposition Zposition Zrotation Xrotation Yrotation 
		JOINT Spine
		{
			OFFSET 15.7357 0.0 0.0
			CHANNELS 6 Xposition Yposition Zposition Zrotation Xrotation Yrotation 
			JOINT Chest
			{
				OFFSET 8.98455 -0.406207 0.0
				CHANNELS 6 Xposition Yposition Zposition Zrotation Xrotation Yrotation 
				JOINT Neck
				{
					OFFSET 16.3773 0.0 0.0
					CHANNELS 6 Xposition Yposition Zposition Zrotation Xrotation Yrotation 
					JOINT Head
					{
						OFFSET 6.45672 0.0 0.0
						CHANNELS 6 Xposition Yposition Zposition Zrotation Xrotation Yrotation 
						End Site
						{
							OFFSET 0.0 0.0 0.0
						}
					}
				}
				JOINT Shoulder_L
				{
					OFFSET 12.9942 -0.242716 4.98039
					CHANNELS 6 Xposition Yposition Zposition Zrotation Xrotation Yrotation 
					JOINT UpperArm_L
					{
						OFFSET 5.34809 0.0 0.0
						CHANNELS 6 Xposition Yposition Zposition Zrotation Xrotation Yrotation 
						JOINT LowerArm_L
						{
							OFFSET 24.3286 1.87007e-05 0.0
							CHANNELS 6 Xposition Yposition Zposition Zrotation Xrotation Yrotation 
							JOINT Hand_L
							{
								OFFSET 22.2916 0.0 0.0
								CHANNELS 6 Xposition Yposition Zposition Zrotation Xrotation Yrotation 
								End Site
								{
									OFFSET 0.0 0.0 0.0
								}
							}
						}
					}
				}
				JOINT Shoulder_R
				{
					OFFSET 12.9945 -0.242716 -4.98039
					CHANNELS 6 Xposition Yposition Zposition Zrotation Xrotation Yrotation 
					JOINT UpperArm_R
					{
						OFFSET -5.34813 0.0 0.0
						CHANNELS 6 Xposition Yposition Zposition Zrotation Xrotation Yrotation 
						JOINT LowerArm_R
						{
							OFFSET -24.3289 0.000322201 0.0
							CHANNELS 6 Xposition Yposition Zposition Zrotation Xrotation Yrotation 
							JOINT Hand_R
							{
								OFFSET -22.2915 -0.000108084 0.0
								CHANNELS 6 Xposition Yposition Zposition Zrotation Xrotation Yrotation 
								End Site
								{
									OFFSET 0.0 0.0 0.0
								}
							}
						}
					}
				}
			}
		}
		JOINT UpperLeg_L
		{
			OFFSET -2.19248 -6.46944 0.0
			CHANNELS 6 Xposition Yposition Zposition Zrotation Xrotation Yrotation 
			JOINT LowerLeg_L
			{
				OFFSET 39.0811 0.0 -1.23785e-05
				CHANNELS 6 Xposition Yposition Zposition Zrotation Xrotation Yrotation 
				JOINT Foot_L
				{
					OFFSET 40.9854 0.0 -1.26872e-05
					CHANNELS 6 Xposition Yposition Zposition Zrotation Xrotation Yrotation 
					JOINT Toes_L
					{
						OFFSET 11.7543 0.0 0.0
						CHANNELS 6 Xposition Yposition Zposition Zrotation Xrotation Yrotation 
						End Site
						{
							OFFSET 0.0 0.0 0.0
						}
					}
				}
			}
		}
		JOINT UpperLeg_R
		{
			OFFSET -2.19251 6.46944 0.0
			CHANNELS 6 Xposition Yposition Zposition Zrotation Xrotation Yrotation 
			JOINT LowerLeg_R
			{
				OFFSET -39.0811 -0.00228153 -0.0401928
				CHANNELS 6 Xposition Yposition Zposition Zrotation Xrotation Yrotation 
				JOINT Foot_R
				{
					OFFSET -40.9854 0.0 0.0
					CHANNELS 6 Xposition Yposition Zposition Zrotation Xrotation Yrotation 
					JOINT Toes_R
					{
						OFFSET -11.7543 0.0 0.0
						CHANNELS 6 Xposition Yposition Zposition Zrotation Xrotation Yrotation 
						End Site
						{
							OFFSET 0.0 0.0 0.0
						}
					}
				}
			}
		}
	}
}
MOTION
Frames:	4
Frame Time:	0.0333333
0.000000 0.000000 0.000000 0.000000 0.000000 -0.000000 -0.602431 82.058600 -1.917000 88.014500 5.934060 13.641700 15.735700 0.000005 -0.000001 91.553500 79.700900 -93.730800 8.984550 -0.406207 -0.000000 12.837400 0.456718 -4.405890 16.377300 -0.000001 -0.000001 -2.198810 -8.461190 1.151560 6.456720 -0.000001 -0.000000 -1.323350 -13.152100 11.363600 12.994200 -0.242716 4.980390 -91.979600 5.974180 -71.628600 5.348090 -0.000007 -0.000001 -63.645000 21.846400 -14.908000 24.328600 0.000019 0.000005 2.866900 10.064600 -15.991600 22.291600 -0.000001 0.000005 13.441000 5.255870 1.270410 12.994500 -0.242716 -4.980390 88.543400 8.417120 -80.145600 -5.348130 -0.000001 -0.000004 -65.349400 33.035600 -5.057130 -24.328900 0.000322 -0.000009 -1.716430 -2.873930 -30.850200 -22.291500 -0.000108 -0.000004 19.424300 5.457960 -4.926620 -2.192480 -6.469440 -0.000000 -172.531000 -10.944600 -15.019700 39.081100 -0.000007 -0.000012 -0.111046 0.055747 63.344400 40.985400 -0.000006 -0.000013 5.413860 10.935500 -85.387700 11.754300 -0.000000 0.000003 -0.000145 -0.001413 -16.631300 -2.192510 6.469440 -0.000001 176.026000 18.735800 167.870000 -39.081100 -0.002282 -0.040193 0.132398 -0.067604 62.381600 -40.985400 0.000008 0.000006 5.211800 1.054250 -85.652300 -11.754300 -0.000006 -0.000006 -0.127134 -0.164977 -17.191900
0.000000 0.000000 0.000000 0.000000 0.000000 -0.000000 0.332346 83.658900 -1.423230 89.218500 3.897010 13.110600 15.735700 0.000005 -0.000001 91.008700 80.557400 -92.606300 8.984550 -0.406207 -0.000000 11.122300 0.283187 -3.221200 16.377300 -0.000001 -0.000001 -1.337170 -7.925830 1.398910 6.456720 -0.000001 -0.000000 -0.704478 -11.904900 9.620790 12.994200 -0.242716 4.980390 -91.759000 5.079900 -70.870300 5.348090 -0.000007 -0.000001 -61.057200 16.719300 -14.062800 24.328600 0.000019 0.000005 3.343020 12.706200 -14.873500 22.291600 -0.000001 0.000005 11.668800 5.262150 1.109750 12.994500 -0.242716 -4.980390 88.541100 8.086390 -79.737500 -5.348130 -0.000001 -0.000004 -65.710100 31.735400 -4.962150 -24.328900 0.000322 -0.000009 -1.774610 -3.316740 -28.155400 -22.291500 -0.000108 -0.000004 19.778500 5.451960 -4.709880 -2.192480 -6.469440 -0.000000 -174.303000 -12.053400 -12.121900 39.081100 -0.000007 -0.000012 -0.152662 0.094045 58.366800 40.985400 -0.000006 -0.000013 5.002210 9.639640 -83.538000 11.754300 -0.000000 0.000003 -0.000136 -0.001335 -16.628400 -2.192510 6.469440 -0.000001 174.673000 16.509500 169.572000 -39.081100 -0.002282 -0.040193 0.106290 -0.063992 58.167900 -40.985400 0.000008 0.000006 4.679190 1.802700 -83.551900 -11.754300 -0.000006 -0.000006 -0.034779 -0.057384 -17.294100
0.000000 0.000000 0.000000 0.000000 0.000000 -0.000000 1.157410 85.794300 -0.847118 90.185200 1.910050 12.096500 15.735700 0.000005 -0.000001 91.071100 81.789400 -91.794500 8.984550 -0.406207 -0.000000 8.654600 0.299838 -1.468280 16.377300 -0.000001 -0.000001 0.607497 -7.306590 1.338940 6.456720 -0.000001 -0.000000 -0.124223 -10.587400 6.935870 12.994200 -0.242716 4.980390 -91.265700 3.474340 -69.966200 5.348090 -0.000007 -0.000001 -54.886600 8.591540 -16.282800 24.328600 0.000019 0.000005 3.221420 13.143600 -13.902100 22.291600 -0.000001 0.000005 11.445800 5.236960 1.774380 12.994500 -0.242716 -4.980390 88.593200 7.335730 -79.112200 -5.348130 -0.000001 -0.000004 -66.325400 30.081500 -3.476570 -24.328900 0.000322 -0.000009 -1.696410 -3.373680 -26.700600 -22.291500 -0.000108 -0.000004 19.343500 5.450510 -4.658340 -2.192480 -6.469440 -0.000000 -175.908000 -13.109100 -8.803370 39.081100 -0.000007 -0.000012 -0.147712 0.118562 51.248600 40.985400 -0.000006 -0.000013 4.464240 8.578230 -80.608400 11.754300 -0.000000 0.000003 -0.000116 -0.001167 -16.622200 -2.192510 6.469440 -0.000001 173.378000 15.610900 171.810000 -39.081100 -0.002282 -0.040193 0.078588 -0.059110 51.886000 -40.985400 0.000008 0.000006 4.609660 3.652760 -80.392900 -11.754300 -0.000006 -0.000006 -0.001915 -0.027649 -17.697400
0.000000 0.000000 0.000000 0.000000 0.000000 -0.000000 1.681650 87.857000 -0.416838 90.533000 0.249913 10.370700 15.735700 0.000005 -0.000001 92.098700 83.289100 -91.728500 8.984550 -0.406207 -0.000000 5.645530 0.483481 0.715713 16.377300 -0.000001 -0.000001 3.112700 -7.244220 1.302160 6.456720 -0.000001 -0.000000 0.416437 -9.632330 4.129770 12.994200 -0.242716 4.980390 -90.650600 1.747580 -69.580000 5.348090 -0.000007 -0.000001 -46.471000 -3.177280 -20.410200 24.328600 0.000019 0.000005 2.654570 10.268200 -14.583400 22.291600 -0.000001 0.000005 12.510600 5.206860 2.545510 12.994500 -0.242716 -4.980390 88.674400 6.214470 -77.931700 -5.348130 -0.000001 -0.000004 -66.408600 29.143000 -1.863260 -24.328900 0.000322 -0.000009 -1.700870 -3.500490 -25.921300 -22.291500 -0.000108 -0.000004 18.129900 5.451700 -4.699990 -2.192480 -6.469440 -0.000000 -177.023000 -13.571500 -6.332080 39.081100 -0.000007 -0.000012 -0.132253 0.138613 43.655600 40.985400 -0.000006 -0.000013 3.756380 7.540010 -77.196500 11.754300 -0.000000 0.000003 -0.000088 -0.000925 -16.613100 -2.192510 6.469440 -0.000001 172.809000 16.208400 173.553000 -39.081100 -0.002282 -0.040193 0.052618 -0.049490 44.920800 -40.985400 0.000008 0.000006 4.579760 6.283950 -76.722300 -11.754300 -0.000006 -0.000006 -0.002648 -0.036550 -18.059400
